<?xml version="1.0" encoding="UTF-8" standalone="no"?>
<svg
   version="1.0"
   width="512.000000pt"
   height="512.000000pt"
   viewBox="0 0 512.000000 512.000000"
   preserveAspectRatio="xMidYMid meet"
   id="svg3"
   sodipodi:docname="splash.svg"
   inkscape:version="1.3.2 (091e20e, 2023-11-25, custom)"
   xmlns:inkscape="http://www.inkscape.org/namespaces/inkscape"
   xmlns:sodipodi="http://sodipodi.sourceforge.net/DTD/sodipodi-0.dtd"
   xmlns="http://www.w3.org/2000/svg"
   xmlns:svg="http://www.w3.org/2000/svg">
  <defs
     id="defs3" />
  <sodipodi:namedview
     id="namedview3"
     pagecolor="#ffffff"
     bordercolor="#000000"
     borderopacity="0.25"
     inkscape:showpageshadow="2"
     inkscape:pageopacity="0.0"
     inkscape:pagecheckerboard="0"
     inkscape:deskcolor="#d1d1d1"
     inkscape:document-units="pt"
     inkscape:zoom="0.85039258"
     inkscape:cx="41.745425"
     inkscape:cy="263.99572"
     inkscape:window-width="1920"
     inkscape:window-height="1017"
     inkscape:window-x="-8"
     inkscape:window-y="-8"
     inkscape:window-maximized="1"
     inkscape:current-layer="svg3" />
  <path
     style="fill:#ffffff;stroke-width:0.995654;fill-opacity:1"
     d="M 77.37297,263.31631 V 106.00324 h 35.8435 35.84348 v 20.41087 20.41088 h -14.93478 -14.9348 v 49.78261 49.78262 h 14.9348 14.93478 v 19.91305 19.91305 h -14.93478 -14.9348 v 67.20655 67.20652 H 98.281671 77.37297 Z"
     id="path4" />
  <path
     style="fill:#ffffff;stroke-width:0.995654;fill-opacity:1"
     d="M 77.37297,263.31631 V 106.00324 h 35.8435 35.84348 v 20.41087 20.41088 h -14.93478 -14.9348 v 49.78261 49.78262 h 14.9348 14.93478 v 19.91305 19.91305 h -14.93478 -14.9348 v 67.20655 67.20652 H 98.281671 77.37297 Z"
     id="path5" />
  <path
     style="fill:#ffffff;stroke-width:0.995654;fill-opacity:1"
     d="m 160.2114,419.92023 c -2.07196,-0.39631 -2.23494,-0.83349 -1.71268,-4.59377 0.31745,-2.28567 5.9237,-51.87241 12.45835,-110.19274 6.53463,-58.32034 14.14191,-126.19895 16.90506,-150.84134 2.76317,-24.6424 5.26434,-46.26051 5.55816,-48.04024 l 0.53425,-3.23586 h 22.38831 c 17.00565,0 22.49706,0.29922 22.84062,1.24456 0.24878,0.68452 1.81307,14.46185 3.47622,30.61632 2.47609,24.05078 20.25533,194.83949 27.72587,266.33701 1.02992,9.85697 1.67126,18.14578 1.42518,18.41958 -0.24608,0.2738 -9.53387,0.64214 -20.63957,0.81853 l -20.19214,0.32072 -0.6125,-4.80114 c -0.33688,-2.64064 -0.9166,-15.4422 -1.28825,-28.44791 l -0.67575,-23.64674 h -12.16058 -12.16058 l -0.56029,3.45273 c -0.30817,1.89899 -1.34565,14.66824 -2.30551,28.37609 l -1.7452,24.92336 -18.48455,-0.13563 c -10.16652,-0.0745 -19.515,-0.33268 -20.77442,-0.57358 z m 65.10048,-103.0876 c -0.94696,-10.30548 -7.55192,-148.69796 -7.55192,-158.23379 0,-3.13265 -0.35006,-3.80863 -1.97233,-3.80863 -2.63786,0 -2.79735,1.09413 -3.48316,23.89566 -1.34847,44.83237 -4.53129,115.53187 -6.12959,136.15546 l -0.63659,8.21413 h 10.1727 10.17269 z"
     id="path6" />
  <path
     style="fill:#ffffff;stroke-width:0.995654;fill-opacity:1"
     d="m 295.91014,142.9768 c -11.51345,-5.23045 -15.94302,-19.91642 -9.02023,-29.90602 8.38045,-12.093 22.51255,-13.227267 32.31431,-2.59361 4.76554,5.17002 5.4539,7.40213 4.91118,15.9255 -0.33805,5.30885 -0.92664,7.04979 -3.42856,10.14098 -6.23699,7.70602 -16.25127,10.30617 -24.7767,6.43315 z"
     id="path7" />
  <path
     style="fill:#ffffff;stroke-width:0.995654;fill-opacity:1"
     d="M 286.45998,299.1598 V 177.69021 h 17.92173 17.92175 V 299.1598 420.62939 h -17.92175 -17.92173 z"
     id="path8" />
  <path
     style="fill:#ffffff;stroke-width:0.995654;fill-opacity:1"
     d="m 363.62305,420.81354 c -13.23618,-6.23109 -22.15959,-27.12222 -24.48512,-57.32365 -0.67146,-8.7204 -0.91458,-32.93296 -0.64092,-63.83227 0.43522,-49.14249 0.47432,-49.93624 3.04134,-61.73044 5.17268,-23.76593 12.04261,-38.77863 22.56401,-49.3086 7.2977,-7.30364 11.0017,-9.36341 21.14132,-11.75657 l 7.03723,-1.66093 -0.64477,-34.59893 -0.64475,-34.59891 h 18.42561 18.42562 l 0.11566,62.975 c 0.0636,34.63626 0.41104,96.13025 0.77215,136.6533 0.71014,79.69594 0.49859,76.76305 6.0457,83.81505 l 2.00818,2.55299 -7.60471,11.07903 c -4.18259,6.09348 -9.14094,12.98836 -11.01856,15.32197 l -3.41385,4.24291 -2.99108,-1.75378 c -4.31075,-2.52756 -12.70788,-11.68298 -13.92954,-15.18745 -0.57415,-1.64703 -1.4305,-2.9946 -1.90299,-2.9946 -0.47248,0 -3.29705,3.29666 -6.27683,7.32593 -2.97978,4.02925 -7.08582,8.35682 -9.12451,9.6168 -4.99862,3.08933 -11.81147,3.55823 -16.89915,1.16315 z m 26.32428,-34.7034 2.37387,-1.66274 -0.70773,-79.23403 c -0.38927,-43.5787 -1.02932,-80.74915 -1.42233,-82.60099 l -0.71458,-3.36698 -3.2681,2.74993 c -3.81083,3.20663 -7.28259,9.63897 -9.70301,17.97736 -1.5044,5.18273 -1.77338,12.56553 -2.16062,59.3017 -0.55301,66.74238 0.40056,78.76566 6.78934,85.60488 3.07747,3.29444 5.40324,3.61926 8.81316,1.23087 z"
     id="path9" />
</svg>
