<?xml version="1.0" encoding="UTF-8" standalone="no"?>
<svg
   version="1.0"
   width="512.000000pt"
   height="512.000000pt"
   viewBox="0 0 512.000000 512.000000"
   preserveAspectRatio="xMidYMid meet"
   id="svg3"
   sodipodi:docname="faid_icon.svg"
   inkscape:version="1.3.2 (091e20e, 2023-11-25, custom)"
   xmlns:inkscape="http://www.inkscape.org/namespaces/inkscape"
   xmlns:sodipodi="http://sodipodi.sourceforge.net/DTD/sodipodi-0.dtd"
   xmlns="http://www.w3.org/2000/svg"
   xmlns:svg="http://www.w3.org/2000/svg">
  <defs
     id="defs3" />
  <sodipodi:namedview
     id="namedview3"
     pagecolor="#ffffff"
     bordercolor="#000000"
     borderopacity="0.25"
     inkscape:showpageshadow="2"
     inkscape:pageopacity="0.0"
     inkscape:pagecheckerboard="0"
     inkscape:deskcolor="#d1d1d1"
     inkscape:document-units="pt"
     inkscape:zoom="0.85039258"
     inkscape:cx="41.745425"
     inkscape:cy="263.99572"
     inkscape:window-width="1920"
     inkscape:window-height="1017"
     inkscape:window-x="-8"
     inkscape:window-y="-8"
     inkscape:window-maximized="1"
     inkscape:current-layer="svg3" />
  <path
     style="fill:#ffffff;stroke-width:0.621288"
     d="m 144.94225,263.13341 v -98.1634 h 22.36635 22.36634 v 12.73639 12.73639 h -9.31931 -9.31932 v 31.06437 31.06437 h 9.31932 9.31931 v 12.42575 12.42575 h -9.31931 -9.31932 v 41.93691 41.93689 h -13.04703 -13.04703 z"
     id="path4" />
  <path
     style="fill:#000000;stroke-width:0.621288"
     d="m 144.94225,263.13341 v -98.1634 h 22.36635 22.36634 v 12.73639 12.73639 h -9.31931 -9.31932 v 31.06437 31.06437 h 9.31932 9.31931 v 12.42575 12.42575 h -9.31931 -9.31932 v 41.93691 41.93689 h -13.04703 -13.04703 z"
     id="path5" />
  <path
     style="fill:#000000;stroke-width:0.621288"
     d="m 196.63345,360.85431 c -1.2929,-0.2473 -1.3946,-0.5201 -1.06872,-2.86651 0.19809,-1.42627 3.6964,-32.3684 7.77402,-68.76031 4.07761,-36.39191 8.82456,-78.74818 10.54877,-94.12505 1.72421,-15.37686 3.28495,-28.86656 3.46829,-29.97712 l 0.33338,-2.01917 h 13.97031 c 10.61153,0 14.03816,0.18671 14.25255,0.7766 0.15524,0.42715 1.13136,9.0242 2.16917,19.1046 1.54507,15.00768 12.63932,121.5799 17.30095,166.19437 0.64267,6.15076 1.04285,11.32297 0.8893,11.49383 -0.15355,0.17085 -5.94913,0.40069 -12.87909,0.51076 l -12.59991,0.20012 -0.38219,-2.9959 c -0.21022,-1.64777 -0.57196,-9.63594 -0.80387,-17.75151 l -0.42167,-14.75557 h -7.58821 -7.58821 l -0.34961,2.1545 c -0.19231,1.18497 -0.8397,9.15298 -1.43865,17.70669 l -1.089,15.55219 -11.53436,-0.0847 c -6.34391,-0.0466 -12.17737,-0.20759 -12.96325,-0.35791 z m 40.62272,-64.32669 c -0.5909,-6.43063 -4.7124,-92.78758 -4.7124,-98.73794 0,-1.95478 -0.21843,-2.37658 -1.23073,-2.37658 -1.64603,0 -1.74554,0.68273 -2.1735,14.91089 -0.84144,27.97541 -2.82752,72.09193 -3.82486,84.96105 l -0.39724,5.12563 h 6.34777 6.34777 z"
     id="path6" />
  <path
     style="fill:#000000;stroke-width:0.621288"
     d="m 281.3095,188.04153 c -7.18439,-3.26381 -9.94844,-12.42786 -5.62862,-18.66137 5.22941,-7.54604 14.04784,-8.25383 20.16414,-1.61842 2.9737,3.2261 3.40324,4.61894 3.06458,9.93752 -0.21095,3.31273 -0.57823,4.39907 -2.13942,6.32798 -3.89188,4.80856 -10.1408,6.43105 -15.46068,4.01429 z"
     id="path7" />
  <path
     style="fill:#000000;stroke-width:0.621288"
     d="m 275.41261,285.49976 v -75.79705 h 11.18316 11.18318 v 75.79705 75.79707 h -11.18318 -11.18316 z"
     id="path8" />
  <path
     style="fill:#000000;stroke-width:0.621288"
     d="m 323.56238,361.41174 c -8.25938,-3.88821 -13.82759,-16.92428 -15.27872,-35.76998 -0.419,-5.44154 -0.5707,-20.55018 -0.39994,-39.83136 0.27159,-30.66493 0.29599,-31.16023 1.8978,-38.51981 3.22776,-14.82995 7.5146,-24.19788 14.07995,-30.76858 4.55377,-4.55748 6.86507,-5.84277 13.1922,-7.3361 l 4.39123,-1.03643 -0.40234,-21.58974 -0.40232,-21.58973 h 11.49759 11.49759 l 0.0722,39.29642 c 0.0396,21.61303 0.25649,59.98531 0.48182,85.2717 0.44313,49.7303 0.31112,47.90016 3.77252,52.30062 l 1.2531,1.59307 -4.74533,6.91331 c -2.60994,3.80234 -5.70396,8.10475 -6.87559,9.56091 l -2.13024,2.64758 -1.86644,-1.09435 c -2.68991,-1.5772 -7.92972,-7.29019 -8.69204,-9.47698 -0.35827,-1.02775 -0.89263,-1.86863 -1.18746,-1.86863 -0.29483,0 -2.05736,2.05712 -3.91675,4.57138 -1.85938,2.51426 -4.42155,5.21466 -5.69369,6.00089 -3.11914,1.92774 -7.37037,2.22034 -10.54508,0.72581 z m 16.42636,-21.65493 1.4813,-1.03755 -0.44163,-49.44207 c -0.2429,-27.19313 -0.64229,-50.38749 -0.88753,-51.54304 l -0.44589,-2.101 -2.0393,1.71596 c -2.37796,2.00093 -4.54434,6.01472 -6.05468,11.21788 -0.93874,3.23402 -1.1066,7.84089 -1.34823,37.00427 -0.34507,41.64727 0.24996,49.1498 4.23655,53.41748 1.92035,2.05574 3.37162,2.25842 5.49941,0.76807 z"
     id="path9" />
</svg>
